<svg width="647.3287109375px" height="122.15849609375px" xmlns="http://www.w3.org/2000/svg" viewBox="-73.66435546874999 13.920751953124999 647.3287109375 122.15849609375" style="background: rgb(253, 253, 253);" preserveAspectRatio="xMidYMid"><defs><filter id="editing-extrude-glow"><feFlood flood-color="#bbcedd" result="flood-1"></feFlood><feMorphology operator="erode" radius="1" in="SourceAlpha" result="erode"></feMorphology><feComposite operator="in" in="flood-1" in2="erode" result="comp1"></feComposite><feConvolveMatrix order="3,3" divisor="1" in="comp1" result="convolve" kernelMatrix="0 0 0 1 1 1 0 0 0"></feConvolveMatrix><feOffset dx="-3" dy="0" in="convolve" result="extrude"></feOffset><feComposite operator="in" in="flood-1" in2="extrude" result="comp-extrude"></feComposite><feFlood flood-color="#dce4eb" result="flood-2"></feFlood><feComposite operator="in" in="flood-2" in2="SourceAlpha" result="comp2"></feComposite><feMorphology operator="dilate" radius="1" in="comp2" result="dilate"></feMorphology><feOffset dx="-4.5" dy="0" in="dilate" result="offset"></feOffset><feGaussianBlur in="offset" stdDeviation="5.8" result="blur"></feGaussianBlur><feComponentTransfer in="blur" result="shadow"><feFuncA type="linear" slope="0.8" intercept="-0.2"></feFuncA></feComponentTransfer><feMerge><feMergeNode in="shadow"></feMergeNode><feMergeNode in="comp-extrude"></feMergeNode><feMergeNode in="SourceGraphic"></feMergeNode></feMerge></filter></defs><g filter="url(#editing-extrude-glow)"><g transform="translate(19.761438608169556, 99)"><path d="M14.21 0L0.51 0L8.32-42.05L8.32-42.05Q14.66-42.75 23.90-42.75L23.90-42.75L23.90-42.75Q33.15-42.75 37.44-40.06L37.44-40.06L37.44-40.06Q41.73-37.38 41.73-31.97L41.73-31.97L41.73-31.97Q41.73-26.56 38.94-23.17L38.94-23.17L38.94-23.17Q36.16-19.78 31.36-18.69L31.36-18.69L31.36-18.69Q32.45-13.38 34.94-9.09L34.94-9.09L34.94-9.09Q37.25-5.06 39.94-3.78L39.94-3.78L39.94-3.78Q38.98-1.09 37.02 0.10L37.02 0.10L37.02 0.10Q35.07 1.28 32.29 1.28L32.29 1.28L32.29 1.28Q29.50 1.28 27.33-0.35L27.33-0.35L27.33-0.35Q25.15-1.98 23.42-4.99L23.42-4.99L23.42-4.99Q19.78-11.52 19.39-21.82L19.39-21.82L19.84-21.82L19.84-21.82Q24.58-21.95 26.94-24.42L26.94-24.42L26.94-24.42Q29.31-26.88 29.31-32.06L29.31-32.06L29.31-32.06Q29.31-38.53 23.87-38.78L23.87-38.78L22.46-38.78L22.46-38.78Q21.89-38.78 21.57-38.72L21.57-38.72L14.21 0ZM65.22-2.69L65.22-2.69L65.22-2.69Q62.14 1.28 54.53 1.28L54.53 1.28L54.53 1.28Q50.56 1.28 47.68-1.12L47.68-1.12L47.68-1.12Q44.80-3.52 44.80-6.98L44.80-6.98L44.80-6.98Q44.80-8.90 44.99-9.86L44.99-9.86L49.28-32.64L62.27-33.92L57.60-9.22L57.60-9.22Q57.34-7.81 57.34-6.98L57.34-6.98L57.34-6.98Q57.34-3.26 59.58-3.26L59.58-3.26L59.58-3.26Q62.08-3.26 63.87-6.66L63.87-6.66L63.87-6.66Q64.45-7.74 64.70-9.15L64.70-9.15L69.25-32.64L81.86-33.92L77.12-8.96L77.12-8.96Q76.93-8 76.93-6.98L76.93-6.98L76.93-6.98Q76.93-5.95 77.50-4.83L77.50-4.83L77.50-4.83Q78.08-3.71 79.94-3.46L79.94-3.46L79.94-3.46Q79.55-1.92 78.21-0.90L78.21-0.90L78.21-0.90Q75.39 1.28 72.35 1.28L72.35 1.28L72.35 1.28Q69.31 1.28 67.52 0.19L67.52 0.19L67.52 0.19Q65.73-0.90 65.22-2.69ZM104.45-22.46L104.45-22.46L104.45-22.46Q105.34-24.83 105.34-26.88L105.34-26.88L105.34-26.88Q105.34-30.66 102.27-30.66L102.27-30.66L102.27-30.66Q100.67-30.66 99.36-29.22L99.36-29.22L99.36-29.22Q98.05-27.78 98.05-25.98L98.05-25.98L98.05-25.98Q98.05-24.70 99.07-23.68L99.07-23.68L99.07-23.68Q100.54-22.27 104.32-19.97L104.32-19.97L104.32-19.97Q108.10-17.66 109.54-15.78L109.54-15.78L109.54-15.78Q110.98-13.89 110.98-11.30L110.98-11.30L110.98-11.30Q110.98-8.70 109.73-6.34L109.73-6.34L109.73-6.34Q108.48-3.97 106.24-2.30L106.24-2.30L106.24-2.30Q101.44 1.28 93.76 1.28L93.76 1.28L93.76 1.28Q89.60 1.28 86.40-0.90L86.40-0.90L86.40-0.90Q83.20-3.01 83.20-5.50L83.20-5.50L83.20-5.50Q83.20-8 85.02-9.47L85.02-9.47L85.02-9.47Q86.85-10.94 89.54-10.94L89.54-10.94L89.54-10.94Q92.22-10.94 93.89-9.92L93.89-9.92L93.89-9.92Q93.06-7.81 93.06-6.40L93.06-6.40L93.06-6.40Q93.06-2.18 96.64-2.18L96.64-2.18L96.64-2.18Q98.18-2.18 99.20-3.14L99.20-3.14L99.20-3.14Q100.22-4.10 100.22-5.76L100.22-5.76L100.22-5.76Q100.22-9.02 94.72-12.48L94.72-12.48L94.72-12.48Q90.24-15.42 89.22-16.58L89.22-16.58L89.22-16.58Q87.49-18.62 87.49-21.18L87.49-21.18L87.49-21.18Q87.49-23.74 88.70-26.18L88.70-26.18L88.70-26.18Q89.92-28.61 92.16-30.34L92.16-30.34L92.16-30.34Q96.83-33.92 104.96-33.92L104.96-33.92L104.96-33.92Q109.12-33.92 111.58-32.26L111.58-32.26L111.58-32.26Q114.05-30.59 114.05-27.78L114.05-27.78L114.05-27.78Q114.05-24.96 112.35-23.36L112.35-23.36L112.35-23.36Q110.66-21.76 107.58-21.76L107.58-21.76L107.58-21.76Q105.47-21.76 104.45-22.46ZM135.55-22.46L135.55-22.46L135.55-22.46Q136.45-24.83 136.45-26.88L136.45-26.88L136.45-26.88Q136.45-30.66 133.38-30.66L133.38-30.66L133.38-30.66Q131.78-30.66 130.46-29.22L130.46-29.22L130.46-29.22Q129.15-27.78 129.15-25.98L129.15-25.98L129.15-25.98Q129.15-24.70 130.18-23.68L130.18-23.68L130.18-23.68Q131.65-22.27 135.42-19.97L135.42-19.97L135.42-19.97Q139.20-17.66 140.64-15.78L140.64-15.78L140.64-15.78Q142.08-13.89 142.08-11.30L142.08-11.30L142.08-11.30Q142.08-8.70 140.83-6.34L140.83-6.34L140.83-6.34Q139.58-3.97 137.34-2.30L137.34-2.30L137.34-2.30Q132.54 1.28 124.86 1.28L124.86 1.28L124.86 1.28Q120.70 1.28 117.50-0.90L117.50-0.90L117.50-0.90Q114.30-3.01 114.30-5.50L114.30-5.50L114.30-5.50Q114.30-8 116.13-9.47L116.13-9.47L116.13-9.47Q117.95-10.94 120.64-10.94L120.64-10.94L120.64-10.94Q123.33-10.94 124.99-9.92L124.99-9.92L124.99-9.92Q124.16-7.81 124.16-6.40L124.16-6.40L124.16-6.40Q124.16-2.18 127.74-2.18L127.74-2.18L127.74-2.18Q129.28-2.18 130.30-3.14L130.30-3.14L130.30-3.14Q131.33-4.10 131.33-5.76L131.33-5.76L131.33-5.76Q131.33-9.02 125.82-12.48L125.82-12.48L125.82-12.48Q121.34-15.42 120.32-16.58L120.32-16.58L120.32-16.58Q118.59-18.62 118.59-21.18L118.59-21.18L118.59-21.18Q118.59-23.74 119.81-26.18L119.81-26.18L119.81-26.18Q121.02-28.61 123.26-30.34L123.26-30.34L123.26-30.34Q127.94-33.92 136.06-33.92L136.06-33.92L136.06-33.92Q140.22-33.92 142.69-32.26L142.69-32.26L142.69-32.26Q145.15-30.59 145.15-27.78L145.15-27.78L145.15-27.78Q145.15-24.96 143.46-23.36L143.46-23.36L143.46-23.36Q141.76-21.76 138.69-21.76L138.69-21.76L138.69-21.76Q136.58-21.76 135.55-22.46ZM162.88-3.52L162.88-3.52L162.88-3.52Q160.90 1.28 154.56 1.28L154.56 1.28L154.56 1.28Q151.30 1.28 149.25-0.96L149.25-0.96L149.25-0.96Q147.52-2.94 147.52-4.93L147.52-4.93L147.52-4.93Q147.52-10.11 149.89-20.22L149.89-20.22L152.26-32.64L165.25-33.92L161.34-13.70L161.34-13.70Q160.26-8.96 160.26-7.30L160.26-7.30L160.26-7.30Q160.26-3.65 162.88-3.52ZM153.41-41.54L153.41-41.54L153.41-41.54Q153.41-44.03 155.49-45.38L155.49-45.38L155.49-45.38Q157.57-46.72 160.58-46.72L160.58-46.72L160.58-46.72Q163.58-46.72 165.41-45.38L165.41-45.38L165.41-45.38Q167.23-44.03 167.23-41.54L167.23-41.54L167.23-41.54Q167.23-39.04 165.22-37.76L165.22-37.76L165.22-37.76Q163.20-36.48 160.19-36.48L160.19-36.48L160.19-36.48Q157.18-36.48 155.30-37.76L155.30-37.76L155.30-37.76Q153.41-39.04 153.41-41.54ZM171.10-1.92L171.10-1.92L171.10-1.92Q169.60-3.58 168.93-6.21L168.93-6.21L168.93-6.21Q168.26-8.83 168.26-13.12L168.26-13.12L168.26-13.12Q168.26-17.41 169.73-21.31L169.73-21.31L169.73-21.31Q171.20-25.22 173.89-28.03L173.89-28.03L173.89-28.03Q179.39-33.92 188.48-33.92L188.48-33.92L188.48-33.92Q191.74-33.92 194.11-32.83L194.11-32.83L205.06-33.92L200.32-8.96L200.32-8.96Q200.13-8.19 200.13-6.78L200.13-6.78L200.13-6.78Q200.13-5.38 200.99-4.48L200.99-4.48L200.99-4.48Q201.86-3.58 203.14-3.46L203.14-3.46L203.14-3.46Q202.50-1.28 200.16 0L200.16 0L200.16 0Q197.82 1.28 195.20 1.28L195.20 1.28L195.20 1.28Q192.58 1.28 190.82 0.29L190.82 0.29L190.82 0.29Q189.06-0.70 188.54-2.37L188.54-2.37L188.54-2.37Q187.52-0.77 185.34 0.26L185.34 0.26L185.34 0.26Q183.17 1.28 180.26 1.28L180.26 1.28L180.26 1.28Q177.34 1.28 174.98 0.51L174.98 0.51L174.98 0.51Q172.61-0.26 171.10-1.92ZM184.61-27.90L184.61-27.90L184.61-27.90Q183.87-26.75 183.23-24.80L183.23-24.80L183.23-24.80Q182.59-22.85 181.54-17.63L181.54-17.63L181.54-17.63Q180.48-12.42 180.48-8.70L180.48-8.70L180.48-8.70Q180.48-4.99 181.06-3.90L181.06-3.90L181.06-3.90Q181.63-2.82 182.66-2.82L182.66-2.82L182.66-2.82Q184.70-2.82 186.21-4.77L186.21-4.77L186.21-4.77Q187.71-6.72 188.29-10.18L188.29-10.18L191.68-28.93L191.68-28.93Q190.34-30.08 188.77-30.08L188.77-30.08L188.77-30.08Q187.20-30.08 186.27-29.57L186.27-29.57L186.27-29.57Q185.34-29.06 184.61-27.90ZM235.58 1.28L235.58 1.28L235.58 1.28Q227.84 1.28 227.84-4.74L227.84-4.74L227.84-4.74Q227.90-6.40 228.42-9.22L228.42-9.22L229.57-15.10L229.57-15.10Q231.30-23.42 231.30-25.28L231.30-25.28L231.30-25.28Q231.30-28.99 229.12-28.99L229.12-28.99L229.12-28.99Q225.47-28.99 223.55-19.46L223.55-19.46L219.78 0L206.91 1.28L213.57-32.70L224.06-33.92L223.04-27.65L223.04-27.65Q226.05-33.92 235.26-33.92L235.26-33.92L235.26-33.92Q239.74-33.92 241.63-32.03L241.63-32.03L241.63-32.03Q243.52-30.14 243.52-25.92L243.52-25.92L243.52-25.92Q243.52-21.95 241.47-12.67L241.47-12.67L241.47-12.67Q240.51-8.51 240.51-6.94L240.51-6.94L240.51-6.94Q240.51-5.38 241.38-4.48L241.38-4.48L241.38-4.48Q242.24-3.58 243.52-3.46L243.52-3.46L243.52-3.46Q242.88-1.28 240.67 0L240.67 0L240.67 0Q238.46 1.28 235.58 1.28ZM251.01-10.37L251.01-10.37L251.01-10.37Q248.96-11.84 248.96-14.66L248.96-14.66L248.96-14.66Q248.96-16.19 249.73-17.44L249.73-17.44L249.73-17.44Q250.50-18.69 252.03-18.88L252.03-18.88L264.64-18.88L264.64-18.88Q266.75-18.88 267.39-20.16L267.39-20.16L267.39-20.16Q268.42-19.58 268.86-18.37L268.86-18.37L268.86-18.37Q269.31-17.15 269.31-15.87L269.31-15.87L269.31-15.87Q269.31-14.59 268.32-13.34L268.32-13.34L268.32-13.34Q267.33-12.10 265.86-11.97L265.86-11.97L254.14-11.97L254.14-11.97Q252.80-11.97 252.16-11.55L252.16-11.55L252.16-11.55Q251.52-11.14 251.01-10.37ZM274.75-6.40L274.75-6.40L274.75-6.40Q274.75-8.13 275.65-12.48L275.65-12.48L279.04-29.76L275.26-29.76L275.52-31.68L275.52-31.68Q283.20-33.98 290.62-39.62L290.62-39.62L293.70-39.62L292.16-32.64L297.15-32.64L296.58-29.76L291.65-29.76L288.38-12.48L288.38-12.48Q287.55-8.51 287.55-7.17L287.55-7.17L287.55-7.17Q287.55-4.10 290.24-3.46L290.24-3.46L290.24-3.46Q289.60-1.28 287.30 0L287.30 0L287.30 0Q284.99 1.28 281.73 1.28L281.73 1.28L281.73 1.28Q278.46 1.28 276.61-0.77L276.61-0.77L276.61-0.77Q274.75-2.82 274.75-6.40ZM316.86-17.98L316.86-17.98L316.86-17.98Q319.17-22.08 319.17-26.24L319.17-26.24L319.17-26.24Q319.17-28.99 317.18-28.99L317.18-28.99L317.18-28.99Q315.65-28.99 314.05-26.37L314.05-26.37L314.05-26.37Q312.38-23.74 311.87-20.35L311.87-20.35L308.54 0L295.30 1.28L301.82-32.64L312.38-33.92L311.23-27.46L311.23-27.46Q314.37-33.92 321.41-33.92L321.41-33.92L321.41-33.92Q325.12-33.92 327.14-32L327.14-32L327.14-32Q329.15-30.08 329.15-26.14L329.15-26.14L329.15-26.14Q329.15-22.21 326.56-19.71L326.56-19.71L326.56-19.71Q323.97-17.22 319.55-17.22L319.55-17.22L319.55-17.22Q317.63-17.22 316.86-17.98ZM332.96-1.92L332.96-1.92L332.96-1.92Q331.46-3.58 330.78-6.21L330.78-6.21L330.78-6.21Q330.11-8.83 330.11-13.12L330.11-13.12L330.11-13.12Q330.11-17.41 331.58-21.31L331.58-21.31L331.58-21.31Q333.06-25.22 335.74-28.03L335.74-28.03L335.74-28.03Q341.25-33.92 350.34-33.92L350.34-33.92L350.34-33.92Q353.60-33.92 355.97-32.83L355.97-32.83L366.91-33.92L362.18-8.96L362.18-8.96Q361.98-8.19 361.98-6.78L361.98-6.78L361.98-6.78Q361.98-5.38 362.85-4.48L362.85-4.48L362.85-4.48Q363.71-3.58 364.99-3.46L364.99-3.46L364.99-3.46Q364.35-1.28 362.02 0L362.02 0L362.02 0Q359.68 1.28 357.06 1.28L357.06 1.28L357.06 1.28Q354.43 1.28 352.67 0.29L352.67 0.29L352.67 0.29Q350.91-0.70 350.40-2.37L350.40-2.37L350.40-2.37Q349.38-0.77 347.20 0.26L347.20 0.26L347.20 0.26Q345.02 1.28 342.11 1.28L342.11 1.28L342.11 1.28Q339.20 1.28 336.83 0.51L336.83 0.51L336.83 0.51Q334.46-0.26 332.96-1.92ZM346.46-27.90L346.46-27.90L346.46-27.90Q345.73-26.75 345.09-24.80L345.09-24.80L345.09-24.80Q344.45-22.85 343.39-17.63L343.39-17.63L343.39-17.63Q342.34-12.42 342.34-8.70L342.34-8.70L342.34-8.70Q342.34-4.99 342.91-3.90L342.91-3.90L342.91-3.90Q343.49-2.82 344.51-2.82L344.51-2.82L344.51-2.82Q346.56-2.82 348.06-4.77L348.06-4.77L348.06-4.77Q349.57-6.72 350.14-10.18L350.14-10.18L353.54-28.93L353.54-28.93Q352.19-30.08 350.62-30.08L350.62-30.08L350.62-30.08Q349.06-30.08 348.13-29.57L348.13-29.57L348.13-29.57Q347.20-29.06 346.46-27.90ZM393.60-31.55L393.60-31.55L393.60-31.55Q395.71-33.92 399.36-33.92L399.36-33.92L399.36-33.92Q401.60-33.92 403.33-32.70L403.33-32.70L403.33-32.70Q405.06-31.49 405.06-29.22L405.06-29.22L405.06-29.22Q405.06-26.94 404.35-24.51L404.35-24.51L404.35-24.51Q403.65-22.08 402.56-19.58L402.56-19.58L402.56-19.58Q400.38-14.72 397.38-10.69L397.38-10.69L397.38-10.69Q393.15-4.86 389.09-1.79L389.09-1.79L389.09-1.79Q385.02 1.28 380.61 1.28L380.61 1.28L380.61 1.28Q377.02 1.28 374.85 0.45L374.85 0.45L374.85 0.45Q374.46-12.99 373.98-17.79L373.98-17.79L373.98-17.79Q373.50-22.59 373.12-25.22L373.12-25.22L373.12-25.22Q372.48-30.34 370.56-31.55L370.56-31.55L370.56-31.55Q372.03-32.83 373.47-33.38L373.47-33.38L373.47-33.38Q374.91-33.92 377.89-33.92L377.89-33.92L377.89-33.92Q380.86-33.92 382.98-31.58L382.98-31.58L382.98-31.58Q385.09-29.25 385.50-25.12L385.50-25.12L385.50-25.12Q385.92-20.99 385.92-16L385.92-16L385.92-16Q385.92-11.01 385.54-4.99L385.54-4.99L385.54-4.99Q387.52-6.40 389.63-10.69L389.63-10.69L389.63-10.69Q392.51-16.64 393.54-23.81L393.54-23.81L393.54-23.81Q393.86-25.98 393.86-28.29L393.86-28.29L393.86-28.29Q393.86-30.59 393.60-31.55ZM432.70-10.82L432.70-10.82L432.70-10.82Q434.30-9.73 434.30-7.33L434.30-7.33L434.30-7.33Q434.30-4.93 433.09-3.39L433.09-3.39L433.09-3.39Q431.87-1.86 429.89-0.83L429.89-0.83L429.89-0.83Q425.79 1.28 421.38 1.28L421.38 1.28L421.38 1.28Q416.96 1.28 414.37 0.32L414.37 0.32L414.37 0.32Q411.78-0.64 410.05-2.43L410.05-2.43L410.05-2.43Q406.66-5.82 406.66-12.03L406.66-12.03L406.66-12.03Q406.66-21.70 411.90-27.58L411.90-27.58L411.90-27.58Q417.54-33.92 427.33-33.92L427.33-33.92L427.33-33.92Q433.41-33.92 436.42-31.36L436.42-31.36L436.42-31.36Q438.66-29.44 438.66-26.30L438.66-26.30L438.66-26.30Q438.66-15.04 419.20-15.04L419.20-15.04L419.20-15.04Q418.94-13.38 418.94-11.97L418.94-11.97L418.94-11.97Q418.94-9.02 420.26-7.90L420.26-7.90L420.26-7.90Q421.57-6.78 424-6.78L424-6.78L424-6.78Q426.43-6.78 429.02-7.90L429.02-7.90L429.02-7.90Q431.62-9.02 432.70-10.82ZM419.65-17.79L419.65-17.79L419.65-17.79Q424.19-17.79 426.82-20.61L426.82-20.61L426.82-20.61Q429.44-23.30 429.44-27.58L429.44-27.58L429.44-27.58Q429.44-29.06 428.90-29.86L428.90-29.86L428.90-29.86Q428.35-30.66 427.26-30.66L427.26-30.66L427.26-30.66Q426.18-30.66 425.25-30.24L425.25-30.24L425.25-30.24Q424.32-29.82 423.36-28.42L423.36-28.42L423.36-28.42Q420.99-25.22 419.65-17.79ZM456.13-3.52L456.13-3.52L456.13-3.52Q454.14 1.28 447.81 1.28L447.81 1.28L447.81 1.28Q444.61 1.28 442.56-0.96L442.56-0.96L442.56-0.96Q440.90-2.82 440.90-4.93L440.90-4.93L440.90-4.93Q440.90-9.73 443.14-20.22L443.14-20.22L447.81-44.80L460.80-46.08L454.59-13.70L454.59-13.70Q453.50-8.96 453.50-7.30L453.50-7.30L453.50-7.30Q453.50-3.65 456.13-3.52Z" fill="#3d9fe3"></path></g></g><style>text {
  font-size: 64px;
  font-family: Arial Black;
  dominant-baseline: central;
  text-anchor: middle;
}</style></svg>